# xmcd
#
# Track frame offsets:
#	150
#	20552
#	37608
#	55353
#	73533
#	91622
#	113898
#	127570
#	143663
#	159981
#	189782
#
# Disc length: 3356 seconds
#
# Revision: 1
# Processed by: cddbd v1.5.2PL0 Copyright (c) Steve Scherf et al.
# Submitted via: audiograbber 1.83.01
#
DISCID=780d1a0b
DTITLE=Various Artist - All Star  Karaoke ASK 105-2
DYEAR=2009
DGENRE=Karaoke
TTITLE0=Brad Paisley w' Allison Krauss - Wiskey Lullaby
TTITLE1=Brad Paisley w' Toby Keith - Start A Band
TTITLE2=Keith Urban - Days Go By
TTITLE3=Keith Urban - Stupid Boy
TTITLE4=Keith Urban - Sweet Thing
TTITLE5=Keith Urban - You'll Think Of Me
TTITLE6=Kenny Chesney - Everybody Wants To Go To Heaven
TTITLE7=Kenny Chesney - Living In Fast Forward
TTITLE8=Kenny Chesney - The Good Stuff
TTITLE9=Kenny Chesney - You Save Me
TTITLE10=No Artist - Data Track
EXTD=
EXTT0=
EXTT1=
EXTT2=
EXTT3=
EXTT4=
EXTT5=
EXTT6=
EXTT7=
EXTT8=
EXTT9=
EXTT10=
PLAYORDER=
